<mxfile host="app.diagrams.net" modified="2020-11-18T02:35:49.800Z" agent="5.0 (Windows)" etag="koc5pMFRcIqSX6tqCCpE" version="13.9.9" type="github">
  <diagram id="Zhszaj_nvL-RicgDverq" name="Page-1">
    <mxGraphModel dx="1038" dy="547" grid="1" gridSize="10" guides="1" tooltips="1" connect="1" arrows="1" fold="1" page="1" pageScale="1" pageWidth="827" pageHeight="1169" math="0" shadow="0">
      <root>
        <mxCell id="0" />
        <mxCell id="1" parent="0" />
        <mxCell id="Ln79mVaFrT8jAWHs5b0H-1" value="Glycogen" style="rounded=1;whiteSpace=wrap;html=1;" parent="1" vertex="1">
          <mxGeometry x="340" y="40" width="120" height="60" as="geometry" />
        </mxCell>
        <mxCell id="Ln79mVaFrT8jAWHs5b0H-2" value="" style="endArrow=classic;html=1;exitX=0.5;exitY=1;exitDx=0;exitDy=0;" parent="1" source="Ln79mVaFrT8jAWHs5b0H-1" edge="1">
          <mxGeometry width="50" height="50" relative="1" as="geometry">
            <mxPoint x="390" y="310" as="sourcePoint" />
            <mxPoint x="400" y="560" as="targetPoint" />
          </mxGeometry>
        </mxCell>
        <mxCell id="Ln79mVaFrT8jAWHs5b0H-8" value="&lt;div&gt;Glycogen&lt;/div&gt;&lt;div&gt;Phosphorylase&lt;br&gt;&lt;/div&gt;" style="ellipse;whiteSpace=wrap;html=1;" parent="1" vertex="1">
          <mxGeometry x="400" y="280" width="120" height="80" as="geometry" />
        </mxCell>
        <mxCell id="Ln79mVaFrT8jAWHs5b0H-9" value="&lt;div style=&quot;font-size: 18px&quot;&gt;&lt;font style=&quot;font-size: 18px&quot;&gt;Glucose-&lt;/font&gt;&lt;/div&gt;&lt;div style=&quot;font-size: 18px&quot;&gt;&lt;font style=&quot;font-size: 18px&quot;&gt;1-Phosphate&lt;/font&gt;&lt;/div&gt;&lt;div style=&quot;font-size: 18px&quot;&gt;&lt;font style=&quot;font-size: 18px&quot;&gt;&lt;br&gt;&lt;/font&gt;&lt;/div&gt;" style="rounded=1;whiteSpace=wrap;html=1;verticalAlign=top;" parent="1" vertex="1">
          <mxGeometry x="280" y="560" width="240" height="240" as="geometry" />
        </mxCell>
        <mxCell id="Ln79mVaFrT8jAWHs5b0H-10" value="" style="shape=image;verticalLabelPosition=bottom;labelBackgroundColor=#ffffff;verticalAlign=top;aspect=fixed;imageAspect=0;image=data:image/png,iVBORw0KGgoAAAANSUhEUgAAAlIAAAKjCAMAAADhzxH9AAADAFBMVEX///+AAAAAgACAgAAAAICAAIAAgIDAwMDA3MCmyvD/8NT/4rH/1I7/xmv/uEj/qiX/qgDckgC5egCWYgBzSgBQMgD/49T/x7H/q47/j2v/c0j/VyX/VQDcSQC5PQCWMQBzJQBQGQD/1NT/sbH/jo7/a2v/SEj/JSX+AADcAAC5AACWAABzAABQAAD/1OP/scf/jqv/a4//SHP/JVf/AFXcAEm5AD2WADFzACVQABn/1PD/seL/jtT/a8b/SLj/Jar/AKrcAJK5AHqWAGJzAEpQADL/1P//sf//jv//a///SP//Jf/+AP7cANy5ALmWAJZzAHNQAFDw1P/isf/Ujv/Ga/+4SP+qJf+qAP+SANx6ALliAJZKAHMyAFDj1P/Hsf+rjv+Pa/9zSP9XJf9VAP9JANw9ALkxAJYlAHMZAFDU1P+xsf+Ojv9ra/9ISP8lJf8AAP4AANwAALkAAJYAAHMAAFDU4/+xx/+Oq/9rj/9Ic/8lV/8AVf8ASdwAPbkAMZYAJXMAGVDU8P+x4v+O1P9rxv9IuP8lqv8Aqv8AktwAerkAYpYASnMAMlDU//+x//+O//9r//9I//8l//8A/v4A3NwAubkAlpYAc3MAUFDU//Cx/+KO/9Rr/8ZI/7gl/6oA/6oA3JIAuXoAlmIAc0oAUDLU/+Ox/8eO/6tr/49I/3Ml/1cA/1UA3EkAuT0AljEAcyUAUBnU/9Sx/7GO/45r/2tI/0gl/yUA/gAA3AAAuQAAlgAAcwAAUADj/9TH/7Gr/46P/2tz/0hX/yVV/wBJ3AA9uQAxlgAlcwAZUADw/9Ti/7HU/47G/2u4/0iq/yWq/wCS3AB6uQBilgBKcwAyUAD//9T//7H//47//2v//0j//yX+/gDc3AC5uQCWlgBzcwBQUADy8vLm5uba2trOzs7CwsK2traqqqqenp6SkpKGhoZ6enpubm5iYmJWVlZKSko+Pj4yMjImJiYaGhoODg7/+/CgoKSAgID/AAAA/wD//wAAAP//AP8A//8AAABYWvgoAAAAAXRSTlMAQObYZgAAAAFiS0dEAIgFHUgAAAAJcEhZcwAADsQAAA7EAZUrDhsAAB8pSURBVHic7Z1be6IwEEB98///RZS1RSul1s++uUIAueQCOlwC57x1dTXiMRmSyWSzAQAAAAAAAAAAAAAAAAAAkCHcRg8OYTB1Q2BupGJEYb+HdrfkXpIc98O2EDwj0yLq89DudG8Q65WEddJXqeDYFCqTajd8S8ETeiq1T3RGPdiO0Fbwgn5K7Ssd0/ERaZ0v5d+HMVoLHtBLqdKoU9kp7SKcghp9lAq0kVNQSMXYByl9lIqVOrfmE8PcKWJ02PRS6mYc4PIB8TxQG8EruisVWEKm3Cnmp6CPUipkOulfRj0YD9FC8IzuSqn5AsOaXnAhmgJFZ6W2tk5qszlkDx8HaCF4Rmel1EKMcYlYRVqXAVoIntFZqcShzJmRDzK6KhXYx71i5GMKHboqFVqemLEnmIIMdfMf6ahJdHNOPDGNABl3B4VSkVOpLNhKxmgzzJquSqkbPtsrxc5nwCroqpRbGJSCDJQCYTIPOoTnKAUdqXljeeiMUtCNrkqpPsu2ETRTihUZ6KcU81LgpKtSavbcst6yy57A7Dl0Vcq5xqeSX1p56bA6uiqlMvAsoZLa1k59BOislCNfSj2b6By6K7W3j3xkdUJOZ6U29uzyC+MeKLordbDNErBDBgq6K5V3RNrnso8PSnoopaYJLLuN6aRg068mglrnaz+bmghQoY9S+f5PU+UWtjJASh+lKvWlylu7Z30py1YHWBO9lLJVwcMoUPRTahOYanUy6kFOT6WKGagGVBSGkt5KUfcc7LxyOkNwi58+JUd6KJCAM2RgHA50WSBJcGZRBiQJfx+x1efUrYAFsUuVujL0gRxZShXFW0CQM0szIEuWq3AlXRjkyNL0EiarQI5steZv6lbAggh+0qHv39TNgAURXh9OXRj6QI5sW/LX1K2AJZFl6XGEKMixT4e+X4Y+kCNL/OQIURDkO3XqY+pWwILYZUMf68cgx0faTX1P3QpYEqwfgzDBL+vHIMuW1CkQ5it1ikKLIIdKnWLTKMjxL+2mfphEBzn+UqcsxfcBepKlTrF+DILsSZ0CYY6sH4MwCdXMQJY968cgzGdW0mzqVsCSyIqbUXoD5NixfgzCfLB+DMKQOgXCUHoDpKH0BkjzRekNkEWdkEXpDZCD0hsgzR+lN0AYSm+AMJTeAGki1o9BmITSGyBLVnqDoxtAkE9Kb4AwMevHIAupUyANpxaBNKwfgzCU3gBpstIbrB+DICdKb4AslN4AaUidAmkovQHSsH4MwlB6A6QhdQqk+ab0Bsiy+71fEropEOTzwvIxiPJJRgLIglIgDEqBMCgFwqAUCINSIAxKgTAoBcKgFAiDUiAMSoEwKAXCoBQIE6EUyPKHUiALSoEwKAXCoBQIg1IgDEqBMCgFwqAUCINSIAxKgTAoBcKgFAjzR+kWkOWPQnggC0qBMCgFwqAUCINSIAxKgTAoBcKgFAiDUiAMSoEwKAXCoBQIg1IgDEqBMCeUAlnOKAWyoBQIg1IgDEqBMCgFwqAUCINSIAxKgTAoBcKgFAiDUiAMSoEwqVJfUzcClkSq1N/UjYAlgVIgDEqBMCgFwqAUCINSIAxKgTAoBcKgFAiDUiAMSoEwKAXCoBQIg1IgDEqBMAlKgSwoBcKgFAiDUiAMSoEwi1JqHz6YuhGrZylKBYfz5Z5zvu2mbs6aWYZSu9O9TkxnNRlLUCpoCpVJtZ+6WWtlAUqFGqFSblM3bKX4r9Sh2jXFcfL86zR109aJ90qVRp0PgfqX8IhTU+K7UttCqOpNXhDh1HSkSkVTN+J1drk728a/7/Px7zBJq9ZNeuk/p27E68TKnPbdXZA7FUzQqJXjt1IHk1GlUwx9o+O3UmrCXD+tuVe6MZE+Nl4rpWJzUxE/deN3HLVF4LlSZ+OwlxKobmrUFoHnSmXKJMaHT9qbQRgYn5UKHesuW0a+KfBZqcg67m2cvRgMgs9Kxa5YyfkEGACflbq4OqHIMscAQ+GZUtsH5YS4Sj6wPPuAUhMwnlLBtsHHX4NT0uSuo7yFc0bfKn73eAnTS7optW/q8NnU4atpw0WrgwSFUm5hUGoKHkpdv5s6/A6mgwQoNWs+vq/Xnyn9eAGUmjHbrI+aQotW1PTVHEk/m2Nta/4JpWbHXk3b6GNgMz9OG6KmDf+G+QAdlWJbw0gEp6tS5Ntqw5xXyLLm2yYRbtkzmEQYhygPwS8fU7fkdbL+1TbVqdJbyJgag0N+i389+pxIqzINLJ+ABZmxCIuI/MvvH7Aa18xDc+AcGUGE3Vcu1LfvW7zV9hhzdvmB6HwMgmMelV8WsB8psY98MaHUCHzkQdTvIiZrbtZpBDWFQLrUoPzL56CuJ5+j8id5drmhH1IfdgGd8XzZ5fsoF1QnJ7J0ROqxy8gtWhPl1GYy0Fz2FOTdlC5Cz3eN0kkNRjG1+evx1KaGvMpGeyDPjWIGYSgOP0uY2tSRF8BL6mN5WReP271h2C9kalNHUU7jfnp+trIWUHX3zJwXK30jKKY2k0Wun5ZO3ZPjLQzDbVTchdQCqej+tbQOeiqsU5uPy599IZf4uPX2gmuLv7b6qMefP4u50Z2UYmrz2p4PbBZ2Pms6MTWCaF/Z8tDY3LRCnSs/kiD7XV0Z/N4mNE9ttiqF33XFwv1QStdRNT7Lh+qrfS4hOQdsU5uH1neQ0dzB5IlSj88a1XbknFqfeK8ej70d32dA8JcHUT+a7t4YfiT1S+6NUg92h+gcP4hu2pgpUD+wCwHVq3zapjZLo5JbmDq0P5z0TvmklBOV43ld1lzvaGyLqc0/XUdf+FOZynnO5dScWpRSm63qt7+mboeH7IsgSj+1mcdRl0Ywno8MtTqFy1KqKF2dLG/Gd1hcU5s7bdSUkvdetQnCRSlVXJvfBa2cj0BUTG2aYobYZFTp1POhpSlVXB7NNB0YsExt5qhcx4v+ZloNDM//uzylNv+YTehDMbVpW89SVXgN88j5OWTl3wtUqlgUZHmmA+XWF1vWpoqkjAnZp3o0tUSlig/JbIIL69Tmk1szAq+zr9/0LVMplmc68VFMbTrqj50bAXiTS82UhSpVLM98E1AZKbe+aKc2q6iR0fy4mmIuph+WqlS5PLPIFDIByqnN2DmHt2/c0rWol2RarFJF+wmodDy3vnT4yW3toVSx56QIphas1GarQgWSPVv0q+rjrgReGxnLJG4T77d/OnYsz+goq/pE3X5syhHbRawV0Fm0UuXyDMmeT55bX7r23menCCtSqpxNYHkm55WqPu4iXqtSahOyPPOk3Ppin9psgFINSPYsebGqz0tKaZ/n/R1fwV/2QVY/m9B9arPBEaVa5AHVqs9q33Wf2mziPBVRrcjUJxEsr9T3/WfJXqVVa1PIVsFbVX3cx4llT1jDVGeFIqBaabLnewXLWZDRs+Jkz+27VX3u1XFNQ73w82qU2vxb6fKMQFUfV3JLvUjvepQql2dWNZsQSBQsV8GUcd14Vwul1qTUZqMu74pqcQSRSMFylWlgLIq6ikRhE/lsgu1o2yUhVrBcSWM4skBF789xcV1KraoWh6WqT1/ynaH6sXMFm66srGZ5ZnfOgyiRguWqm1rr1lAXq6jFUW59ESpYntcKN29grwyK61NqDbU4rFV9XiKvFd6cQy/KbFQnrVao1OJrcbw9tanjmDu1tmJAHVl0LQ5HVZ+XKQuUnVsly+px+yqVWvDyTPBVHGgtvtvMmFrncWFFSRaa7CkztWlgqxXq3hxe16rUImtxHJxVfd4jOLaF8rZI9RDktTgWc1KW4NSmkV1DqpO3pfSHYVG1ODpV9ZEgXMKBH4OxoOWZz2Jqcz1r4vNkObU4kp8MDqOfnqXU4kjuWY/723FPOgzIQpI9H+GNmjNHqun5SH4u92vi+ZDxUKo4YwepJmV/yr6I6+/dUVtw7qQ3YT93pJqY4LOoz5x4P5WQfpLT8zRVpJqCf+dr8QU8OinftyIn2QTb53UcqcK/vz/Pu3Vx9sfq6X7pr/vs/k9zRilV5O0MLdXn3VIGfY0EH9/3qlD7dCbBsvPRB3Kl6serDiYVStX493WtCpVONy/gChVKlRVKB5VqARdMjMZxtnmRgHTro3GXmh88ldoEtT54EKlQquAjrvlUZtJuF6XUM2tqMKlQKmP/9VsX6jljnm5uvE7auLepKVWshw8mFUqlifeXhk/VJJBsv+yErROgrtSzFMIwUqFUc8C7N5NA0n/xO72zodQjPrwOKNXKldqfmgNeu3TXApXa7L7vg0m1ZqWCKGn5pNnflo6KfueutZXabI7XoaRar1KHc/OipmjyWFKl/M5B1ylVHMkrL9VKlcqTDJpoU7PTL8TvNSutUpvg3Pr8IlKtUalnkkEdw6kEafju9zZRvVLllg1hqdan1FY74FmqTpwNX4g/mJQqyknKSrUypepJBhUsVSfSWRy/K7kYlSoOpxCVak1KBZ/NW+cSW9WJ9Kr7nd1iUUoTpb8r1XqUaiQZVLFvmIy8v0Q2pcoqUGJSrUSpnWnAu7vPCvP/ElmV2lTTPSWk8v96dUCz5vK8cs5dev5ntziUqqV7vi/V8pXamwe8brXg0uyW3xEaOhwuperpnu9KtXClmll1DTrVgvM/FcGpVCPd8z2pFq2UbcC7dz7mIqvr7fU2pQ5KNdI935FquUq1s+rqdD/BN32216kIXZRqpnu+LtVCldImGdQuU49Vu/RSe12+pZtSzXTPV6VapFKH2BKRp/Q7wdf77JaOSrXSPV+TanlKGZIMqvSs0JyWE/C6IFBXpdrpnq9ItTClTEkGVXofPud9dkt3pdrpnv2lWpRSpiSDKt2j8pK4+zcyT3oopUn37CvVcpTa/zkHvH5ReUma3eJ1oY1eSukXkssL6I5CF6KUJcmgQr+ovCSdWvY6FaGfUrp0zz4XcRFK/esw4N1fPzclzW7xutBGT6W06Z7dpfJfKVuSQZXXz03xPrult1LadM+uUvmu1EeXAe/Bzxt7XNJr9CPX5PHpr5Q+3bObVF4rFdqSDKq8dyS094U2XlHKHqXbpPJXKUeSQbdfVCf+3T0vtPGSUoZ0T/d19VUpR5JBlbdPM/Q+u+U1pUzpni6pvFTKlWRQReA0wyy7xeeDaV9VypTuaZfKP6WC6Mf1OZ+8E5U/SV/J5+yWl5UypnvapPJNKWeSQZX3ovIn6Vv6nIrwulLmdE+zVF4ppSvd0+Pn8zK+F9p4RylzuqfpUvujVJckgypnuegnHWl9TkV4SylLuqdeKl+U0pfuMZNIpmGmX4nPhTbeVMqS7qmTygulOiUZVBE+Y9z37JZ3lbKle7almr9SfQc8uai8JF2Z97nQxttKWdM9m1LNXamOSQbt34okvhfaEFDKmu5Zv/qzVqprkkEVwai8JFXqW/5lR0NCKXu6Z1Wq82yVCromGVQRjcpLZv2764CMUs6F5JyfmV6tzkkGVYSj8pKPu9+pCEJKOdI9C37nqFT3JIPaRxnsPt/37BYppVzpnjnXKZTabXOiv5zvJCeTo+893n2QqLwkzW7xORVBTilXumfGRVwphy+d+OmxNJwRD5kpkGW3eFxoQ1ApZ7rnPQum+igl4Usnfvos5w0TlZcE6Xt4nIogqpQ7Sk8qSo3mSyeSrgF689AXedJ38bjQhqxSznTPRN31zZFrJ6mGi8qfpD2mx9ktwkq50j1/MqtmijtOv57GiHHSrt7jQhviStnTPX/n20ulOOL0QaPyJ54X2pBXyp7ueb2+MKk4IpY4feCo/En6nRxHeq8BGEApa7rnZc6dVIppXWb4qLzE/2NkBsCc7vkz31BKYSrKPeLVS5XyORVhIEzpnsnMeyntwDxOVF7ifaGNgTCke3ae/pmIn3u73fZDX+Q53me4EjoH9Ome8x/3mi1M/o195XzPbhkQTbrn3DupRy9VV2rEqLzE9+yWIWmle869j3qEUrU2XifZqZJmt3hdaGNQ6umeszcqnYd9xlIjR+UlYfrmk7yzF1QXkmdm1LVYpI6LZeuP7VeW0qUYOyovybJb/Cy0sT9E5/hBdBvw4pXpntdxjdL4kmPretL7d/UjGD8qL/E1u6WxH+SkW204psLplwYsDzVR6Z5XyQmpli+fXXzpQKpU2tApovIn6Uf0LhVh116Hi9tSZZkq+kk3y0PtN3v0T9fu+d2D+dKBVKlkoqj8iY/ZLZH2uzw3vzIhpR7f1O+l4ct34UtU+DKL4CFTaqKo/El6sfxKRTDmyV0aA7iYUt4wj52+3hXaCMo4+XK8hWG4jZ6K1Z1CqWkYJD1kQEqjTk9/gkjrFEpNg2+FNvKb+qTeIZV5c9U4AqWm4Zic/zzKFL7lXVTrgYN6oKoJSoGbncmo0qnK3StKgZuT0ahiaqGyBo5S4GTXDpgqqMmjZ0ESlAInUUOaOmEjmkIpcHKxdVJqQqSyCI5S4GJniaRS1O3grfgTpcDFoXlP10ApV15TlJqEIDxED7ZelNo42ce9YuQr/kKp8dlXk47i2ywW023ENWM0nGrBFEqNTdha0T/NXKq7SwR1R1j0uOrzxTqcr+Qn0yq106aIHKfOtbFSD5U0hLVJBtdZmSglytZwmZMZJw2r6NuWiRPWnoFSY3Ior+slTsPzytWfr1N1YdzPQKkRKY06lgLty3Tu2TqFUi6mUyoshKpFTrtif9Fcg/SXlEpCHQlKiRLk6rTmovJkpLnWSHgplmISYQzOxgEuHxBv7UdmQdY483pMcdNRTK+j1FiElpAp76dmOpXgjIA081IoNQIqajVkiMTOwWVCnLPn59oTUGokdtbfelYjYa7lgSJz96q41BqPUiNxtHVSxTLZPPcfbx2R3r4ebKHUSNRX61tsnTHwhDhuSI/1nwNKjUPgUmbOI9+pFn43ySdHyr9Rahy29nGvmSAyL5rZ5XWixq8FpcYhsv7QN8U8wjyDqfyeTx9NqUiq8mNAqXGo32drcC97TIhlTi0vllAZ0lFqHJxzOyoimeu5MsaZ/6L8RmXERqlxcC+YWuOVqSnWJ5vBYHHmWXVMRKlxcAsza6XKLIpz9QairAZUu5NFqXHwXalnrtepKH4ZHot/qk9ZodQ4eK9UJSM126tQKR7dqFKJUuPgv1KmU6had6koNQ5xe4Bo0A5K5kagKyncPo0ApcbBOYkw63mpglbh87Nm8halxkH9wC3rLa7CAzMhOJzK8e+s3yi9T7PM9akwlod8ZqZrfOr2yY/LnZkxdSNmxDRKuQrq5DWcxmsQyDHPfKm9SzmYLxMpdbOPfHPO6gQHk+aem3Ls8gKro7YIpJhqh8zJNksw6x0y4GAqpfKOSHunNO99fOBgst3G+SqrebcxnZSnTFcTIZ8jbMXgM6+JAC6mq9ySZ2mbKrf4Mc0JbeZQXyoqVzKe9aWYjvaW/Xa7napDsFTBY0oKXmJ/19M8HxigK0EzPUQTXQH0wr+65zB7dsdK4nZ8o4cCAbw6QwYAALxlt41O6fE4x4gRB94nuCXV+6yzLh3ukB3IpP3vlodglWg2oV3aUqknaV/A8hCsEf0RU60DplAKOnLUGnVvJYOjFHTjuQpyitI9aNHZ4NSISh2TJPmUezkYlcKouLLcf7jonBpRqdTqP7mXgzHJsyab+SPFP1fnE1AKOpAnlCSttbQi06TyAEpBBxKDUaVTlZqrKAVuDkajygqUz+QSlAI3l1bAVEEF7s9SBCgFTsKGNHWCRjSFUuDEfqRO80wzlAIn9eMHW6gIvdyEhVLgYte8p2tSLxWGUuDCWQKzXtAQpcCF81zeQy2YQilw0bM4tPIm1iFdTBOlPMWpVL2Eva5YfA25lqGUp2R9S/eDNlAKXNSEcT8DpcAFSoEwLykV6jihFKS8FEtpn8ckAmRkd3zm9ZjmMdUoBS7OLhF081LaJ6IUZDhnz1UGelh7uuWV5FqGUp6iOqGb+Qkq6i7yOlEKXKhQyVJB+F4LtlAKnKhgylhpbluLzlEK3Bxq4XeLuB5roRQ4aWaX1wnr4x5KQQciSzSVH+tyaDzZ8jpy7UIpb8m7Ke1N36nRSaEUdCGvfaApepeX36ikEaMUdCGvXd/c0xDkFYGqYyJKQRfyoe+e1HbzFdWAalvbUQo6UR4GFB/yafL9rSgvda+dtoFS0I19KZDaq/D8K6mf34JS0JGgdRZQHkc15qtQCjpz0Ah1aW0ZRSnoThBd6kIlmmkFlIJebJ+nlsWRNodql6WZa/+z5aGXQKmlkJkxhyPwUAqEQSkQBqVAGJQCYVAKhEEpEAalQBiUAmFQCoRBKRAGpUAYlAJhUAqEQSkQBqVAGJQCYVAKhEEpEAalQBiUAmFQCoRBKRAGpUAYlAJhUAqEQSkQBqVAGJQCYVAKhEEpAAAAAB/ZH6LoeIyi7c79XAAX21O1/u3JckQvgJtWCdz7PRYsP7pAPpMmn1M3aVZsW0JlUjH+mflrXS7jxE9wOMbZBU7iaC2/06NOqJRW+Xco6KxUeK4/7TTOD1XbR5xHUvp5QMXjRxQGQbiNypLdmgrwkLHfNtFGn6Hm9I9RpDL1EvdohKrZxYeOKp90X8TqOPUWhv5/hKtqVGqEsSf/1I1jmDZhHl6tZfAfgiAxfaunwd/botTQRm9Nn7G4HnM4XcBPnkadD9kvM7yVcdXgTtmUGrafyM8F133C/IoM/4NaKKVR1ehlV0QUQ19W9c71BoXFYZOXIfsJdaZSon2LgKHvHXJ5mlMxxRGQ2mPa5dAoVWlU+wHhd74bpsrVoHjWPwh2nBHFsPd9JnOUU5fh3vhg74TjET77QgnM41vuVDzo+5uUyiOd4dbbznZnwsF7ycUSWXr43QgRhfGbuw077Aaun4taRxjq7ZeMdXCz+Sb5/jql1BHxx+LPxtz+izwH0q3L2CMj32sc6l9ck8vg19U8vtS7EWmllDGWcVU5x1JfbxwRxcCjz2Y6pVT4bWnYztwysJFdN3PEsKt/r0M1wKxUedsgrZT7g2XPYBqhL3vXTzFx/ZjfxdiAxi1Xe/n7Ff7V39et1LC3u0tEDWyWW7rI9YR3MSqlgp3BYpl6H2h8Bkr1xXlb47wxeheTUvl82WArMq7uOb81Qam+OIPUxsgY/QnxUbyi6as9DxzKuJWil3qJuB6zaqh/s9pE7Vc4116/9dXu8sWg4UZclBoI92WrP2MMpYJnbs2A91t9Pzl0ZCZKGRgyt8X5yZ03w6Clr1JxawvXixxrr29gyD2azihSTWIMnNqzQPoqNVALtAy7l04lz1jeYvDpk4WSzFapeODEc7W4aXkTZzcGWqZf6dLYlMTHw+AZAOqDmeN/Z/IL6DlNHlF0VVZ6jS9fajKqexj6gy+VGS/INBBXSn1045LM8Gk9C8WZDqu+yaFv5qdQKl/xMUjjyEwHM9mVMye3BI7HhRowhVLFpivtu9l9AxuOe+nhI4quSkknt3TZyEEn9Qpb+7WbMlF4cIzbzXZsYH8H694mFcIOeic9oVLF/tNmmY1DPkoyzfka6vrpt3FPuulqDIpiQNWyR9viHykG9CrOYhPTbA0dhaAM+pNoGz64ncqFcYx6mdAUURQb2IctsDupUhRWHAZD4a6izMbAX/fESpX1yepQ/vU95lYMaGQOLakudFFv8ixZdmqVLNPH7YJMr1SrlD53eu8TGKemRyqsOH3u5H4bZYSMeEJEeqNGWIifiVIgzm7SItUotUjCU12o44il9FFqoQTb9R34AQAAAAAAAABe8vH398eSLQiSrjUaz8kF6A9KgTAoBcKgFAiDUiAMSoEwKAXCoBQIg1IgDEqBMCgFwqAUCINSIAxKgTAoBcKgFAiDUiAMSoEwKAXCoBQIg1IgDEqBMCgFwqAUCINSIAxKgTAoBcKgFAiDUiAMSoEwKAXCoBQIg1IgDEqBMCgFwqAUCINSIAxKgTAoBcKgFAiDUiAMSoEwKAXCoBQIg1IgDEqBMCgFwqAUCINSIAxKgTAoBcKgFAiDUiAMSoEwKAXCoBQIg1IgDEqBMCgFwqAUCINSIAxKgTAoBcKgFAiDUiAMSoEw++12u5+6EbAiPv6afEzdJPCbdFysc566SeA3KAXCMPABAAAAGAjCKIofRLdw6qbAAggOSe1G7hBM3SLwmiBqzQ7cI6SClwkvbaPu98t26naBr2i6KMVx6paBn5wKg5Io3G02u/BWTpKfGfygP4VRp93z38rYKp6uXeArt7yHaqS07GLGPniJfd5FtUe4vPciRod+qNmok+4h5dSFcAr6cFCjnv5BpVs0bovAc9SElGEBZqeGvnFbBH4Tmoe9FDX0HcZsEXjOydZJFd0UiZvQHRWAmx9X0RQBOnRlbx/3ikkr5hGgKwdXrBRyzwe9OGbG2LaCEkxBL2LnJMGFhT7og1sp9zMAKriTDVAKeoFSIAxKgTAoBcK4leKOD3oRWzJbFGQLQy/OrmFtT7Iw9CJyzZ47V2wAaoQuY1Tyy878BIA6riU8V/ILQANHL3QglIKeOBKFL4x70JeLLUC/MYUAvck3XWlTgfNdo9Qvg17Exgg9SMi/gxfIu6K41U/t8qp47GWAnqih735pjG9b9c9sZYD+FHV/TpUgPczrtjBxDq+QlwN69FTHW/jgdirrLGIUvEQxyLXAKHiRoj5ZnZg5TnidsCVVzHwUvMf+WKmlnxzpoUCAILxFDw70TwAAAAAAAAAAAAAA/vAf7igXACL5pasAAAAASUVORK5CYII=;" parent="1" vertex="1">
          <mxGeometry x="330" y="610.45" width="158" height="179.55" as="geometry" />
        </mxCell>
        <mxCell id="Ln79mVaFrT8jAWHs5b0H-13" value="" style="endArrow=classic;html=1;" parent="1" edge="1">
          <mxGeometry width="50" height="50" relative="1" as="geometry">
            <mxPoint x="480" y="800" as="sourcePoint" />
            <mxPoint x="480" y="960" as="targetPoint" />
          </mxGeometry>
        </mxCell>
        <mxCell id="Ln79mVaFrT8jAWHs5b0H-15" value="" style="endArrow=classic;html=1;" parent="1" edge="1">
          <mxGeometry width="50" height="50" relative="1" as="geometry">
            <mxPoint x="320" y="960" as="sourcePoint" />
            <mxPoint x="320" y="800" as="targetPoint" />
          </mxGeometry>
        </mxCell>
        <mxCell id="Ln79mVaFrT8jAWHs5b0H-16" value="&lt;font style=&quot;font-size: 19px&quot;&gt;phosphogluco-mutase&lt;/font&gt;" style="ellipse;whiteSpace=wrap;html=1;" parent="1" vertex="1">
          <mxGeometry x="320" y="840" width="160" height="80" as="geometry" />
        </mxCell>
        <mxCell id="izrISh038fEr5S8gg0W7-26" value="&lt;div&gt;&lt;font style=&quot;font-size: 19px&quot;&gt;Glucose-&lt;/font&gt;&lt;/div&gt;&lt;div&gt;&lt;font style=&quot;font-size: 19px&quot;&gt;6-Phosphate&lt;/font&gt;&lt;/div&gt;" style="rounded=1;whiteSpace=wrap;html=1;verticalAlign=top;" vertex="1" parent="1">
          <mxGeometry x="280" y="960" width="240" height="240" as="geometry" />
        </mxCell>
        <mxCell id="izrISh038fEr5S8gg0W7-27" value="" style="shape=image;verticalLabelPosition=bottom;labelBackgroundColor=#ffffff;verticalAlign=top;aspect=fixed;imageAspect=0;image=data:image/png,iVBORw0KGgoAAAANSUhEUgAAAsAAAAJUCAMAAAAsBmCIAAADAFBMVEX///+AAAAAgACAgAAAAICAAIAAgIDAwMDA3MCmyvD/8NT/4rH/1I7/xmv/uEj/qiX/qgDckgC5egCWYgBzSgBQMgD/49T/x7H/q47/j2v/c0j/VyX/VQDcSQC5PQCWMQBzJQBQGQD/1NT/sbH/jo7/a2v/SEj/JSX+AADcAAC5AACWAABzAABQAAD/1OP/scf/jqv/a4//SHP/JVf/AFXcAEm5AD2WADFzACVQABn/1PD/seL/jtT/a8b/SLj/Jar/AKrcAJK5AHqWAGJzAEpQADL/1P//sf//jv//a///SP//Jf/+AP7cANy5ALmWAJZzAHNQAFDw1P/isf/Ujv/Ga/+4SP+qJf+qAP+SANx6ALliAJZKAHMyAFDj1P/Hsf+rjv+Pa/9zSP9XJf9VAP9JANw9ALkxAJYlAHMZAFDU1P+xsf+Ojv9ra/9ISP8lJf8AAP4AANwAALkAAJYAAHMAAFDU4/+xx/+Oq/9rj/9Ic/8lV/8AVf8ASdwAPbkAMZYAJXMAGVDU8P+x4v+O1P9rxv9IuP8lqv8Aqv8AktwAerkAYpYASnMAMlDU//+x//+O//9r//9I//8l//8A/v4A3NwAubkAlpYAc3MAUFDU//Cx/+KO/9Rr/8ZI/7gl/6oA/6oA3JIAuXoAlmIAc0oAUDLU/+Ox/8eO/6tr/49I/3Ml/1cA/1UA3EkAuT0AljEAcyUAUBnU/9Sx/7GO/45r/2tI/0gl/yUA/gAA3AAAuQAAlgAAcwAAUADj/9TH/7Gr/46P/2tz/0hX/yVV/wBJ3AA9uQAxlgAlcwAZUADw/9Ti/7HU/47G/2u4/0iq/yWq/wCS3AB6uQBilgBKcwAyUAD//9T//7H//47//2v//0j//yX+/gDc3AC5uQCWlgBzcwBQUADy8vLm5uba2trOzs7CwsK2traqqqqenp6SkpKGhoZ6enpubm5iYmJWVlZKSko+Pj4yMjImJiYaGhoODg7/+/CgoKSAgID/AAAA/wD//wAAAP//AP8A//8AAABYWvgoAAAAAXRSTlMAQObYZgAAAAFiS0dEAIgFHUgAAAAJcEhZcwAADsQAAA7EAZUrDhsAAB+3SURBVHic7Z3blqI6EEB98/9/EaXtRhuGtl32G6MGkEsSQLmkyN4vZ83oGSNsQ+VSlc0GAAAAAAAAAAAAAAAAAAAAAAAAYJVsoyTNbpyT4zZYujEAg9idshpxuHSLAHrT1PdOgsIghENb3zvHpdsF0AdN96tICYXBfUp/02t4N3Z/OGEwiKGw9bR7/l0QYTDIII9/z40hW5DksxHLtAqgHztjT5v3zIcFGgXQl8QcKeQGE0SAu4QqftBL+liXy6KZmwTQn/jh6Fb/orI7m7dFAP1REXBqevlEFAxOc7Ubum9NROzSJskMzQTQE3cM087NGGLfWq07T99KAAMPBS196PHxhsoUMQKDQ+y7phnC5huCbZOP6ZsJoGfbNUgLWI0Dh4maEUKLrhgDYEGUwDvLOxJmgsFd4k49ERgcpltPBAaHQWAQDQKDaI4IDJJRsxB7yzvOTKOBuxz6zQOzkAFuMnwpGcAluhba1HZLw353gKXp2k6ZdrwOsCgH+26eHSEwOE1g39JLShE4jlL0qn8x371OBAHOktc10U8Fk1YPzqO6YAqbgFBUFGwpLWUILwDcQKUVtdbjiuJ+LCOD4xxzgymvCjIpy1nHrQLX1o0+AG4QZQbof0EEW72/R/wFGQTHtr4cswWC2DUUPqEvCCPkqFkAAAAAAAAAAACA9fN3gx08IJb7SgZ1IEAsCAyiQWAQDQKDaBAYRHNBYJDMGYFBMggMokFgEA0Cg2gQGERzF/hz6UYAvMpd4K+lGwHwKggMokFgEA0Cg2gQGESDwCCaFIFBMggMokFgEA0Cg2gQGERzF5izOUEsd4H/lm4EwKsgMIgGgUE0CAyiQWAQzT8EBsnECAySQWAQDQKDaBAYRIPAIJq7wKelGwHwKneB46UbAfAqCAyiQWAQDQKDaBAYRPONwCCZPwQGySAwiAaBQTQIDKJBYBDNXeBk6UYAvMpd4HTpRgC8CgKDaBAYRIPAIBoEBtEcERgk84XAIBkEBtEgMIgGgUE0CAyiQWAQzV3g89KNAHgVBAbRIDCIBoFBNAgMojmkaUpGBgAAAAAAAAAAAAAAaAmvUXIjjg67uT4yytqkyXG+BsBaCE9Vic7HeRTSCfwgCWf5/IJwG904hMGsnwqjESYthU5zKGwUOMviuWTaXdNK93/cz/SxMB5BrFUomv6TLQJn6SwG707Nz52584e32Z9Nz/HJFbIJPEep1eCo/WBCcEnsn33eLQoMw8OxfKRO3gkqgRvt2Rad4nXiT9/s00zPdupPhtEo/Y2e/U75XJ3aYJ3AlTZN/OnPn26WHG+DuPj5KDpM+8kwGkF+0xpjpl06y2PcIHCh1rQalf6eyg53F2GwMGLT/co74WlHciaBN1f1q5ryswNtxBsUChNFiGBr7m9ygycd0BgF3mTGV8YiMQTaYTbDF4eROFuel+oOn5p/HWwNRH96vtMWhRxmgeOpg+Cr8aebhxYcmCSAgy3Q3TV7oq9sLIrVArPA6pXppmQD86OnMJj5YPdJrA9LJdEzCl6TwOrfbz1eqi+SYOo8O/uNUr3UM9N9foGni0NV7GQIUfKpGaJg11ERhHnGKK7ZphO4Hd4qYkM8/KfC5UIcs8CJ8ZVR2No64OLCHCf7eBiHk60b2hT3ccIFMaPAqvOfrlblsf7T1H88VVZc59xhibqPEw7HjQJHE3eBaYegMTGEBDr9PE/cEXWsxE22tTGwRxDdwRW4gJqyt621TRyJmgTO52ifo8ty1ff8DLOTSmR9eM5G9+o1O7/5niBYAGFniDv1XIBG4P32WOypeXbAlW03A7hURpWnu+dfxb+nfiG2SbrGLwhc5NB5G+eZjTVQ+WW9JnCLtP65tu+V1t4PTtJ9G5cUuBqhjiRw2aOqSQhby6YOnmAEnBa4FtlU9198VmLfuBIkXLoFLser3XoisAAcFvjNrOiK74eK75/F6wi8CtyMgZM4mnwbDQKvAjULYZvsVLFifalu8HbKU3uluTDUvJQ8LTECrwE1NOo/D7ztjjJ7UqQ7LCVwpPlh1nl8c9aSHedxG20rceqZXvxpbQIzDyydruek2m5ZzmetR+DO4El9c1biHKdjT1a+YFXeZ43Apu2UiSEezhd9u7dTTkvnXgj1VScvTAHv0bXir3LrJ0xMW0rgzl1Kp46fNriBNS8hf9BOmdy4mMBdz56sQ3Bwg2bWW52kK1Ic6fMn/AATe3sMQUaGEPLcXH1PdJ2+G1pM4I096+1MBCEEZdBZF0TMUd5pOYGtBQXIShZDnn+rKeKX+zvtjsLlBM47WW30RF0IQeSFlM7Nx2UxZTbtY3RBgc1FtXJ/6YBlUOyniaqdcFlfdeKssAUFLsoatvpgaqMJo6yxf8yfmcH2+VcTf/aSAheFZQ3VKUnoFEOlzP45SZLKgQOTr0QtKXClPnAZJz3rA89wQAiMxSHTM32J3EUFtlVox19R7HTHFJ1mOCVoWYE3gemMDOIHaYRNhWc5Jm55tDlNnFIkkd21dPh8OnhzZCXnxK2K8IZvC6jBtXJMaTrTGbsAY8JZybBGPuiOQS7BidpSIJf9D/PBMIiv+xEESzeiJPi9CXzxbUgLb3BfVvhbuhFPHguUBBHQG8cE3nxnjjUI3MY1gR/71S6sa0BPXBN48/FYl2RyGPrhnMCbv7vB30u3AoSQOCdwcJ9Km2FbKayC2DmBN/sLQQT0xUGBVbrKlMWJYD24KLCqD/fZ/T4AJwV+BBG/7OqBbpwUePP12OW+dCtAALGbc1b/7gZ/db8PfCd2c7y0Y1cP9MJRgTef7OqBPrgqsKpCxdZg6MBZgdWuHoIIsOOswKqU5Q8LcmDl21mB2RoMPfhzV2BVyvJj6WaA0zgs8OaDXT3QhcsCszUYOnFaYFXJkq3BYMZpgfNdPQQRYOTP7V0zEVuDwcqf4yu2bA0GK64LzNZgsOK6wGpr8L+lWwGu4rzA6vhzdvWAHvcFZmswWDg6LzAF/8DClwA5HluDpz7AFGQiQWAK/oERCQKzNRiMiBBYHY5+WroV4CAyBGZrMBiQIfAmZGswaLkLfF66ET34Y1cP6JAisNrVw4n20ECMwOzqAR1iBFZbgx3eugyLIEdgFURQ8A9qfMoReHcPIi4EEVBlK0dgCv5BG0kCszUYWogSmLPAoYkogdkaDE1kCUzBP2hwF/h36Ub0R20NZlcPFDy22i7diAFwFjjUkCaw2hpMwT/IEScwZ4FDFXECszUYqsgTmLPAocKHPIEp+AdP9gIFZmswlEgUmLPAoUSkwJwFDgUyBd79ZueULhikCrz5OrOpB+48BJY3qSqknAVMzkNgeTtsERgUCAyiQWAQDQKDaBAYRLNLb8hblUVgEA0Cg2gQGESDwCAaBAbRIDCIBoFBNBECw4N9eGPpRgzH/TPKYXKCQ/w4fu2R5HuVtZiBwN6zO2V1EkkdMQJ7TtDU96GwnD0RCOw3oUbfO9elG9YXBPaaQ7XbTZL0+ScpB2ojsM+U/saHPBsuPAozGIE9ZlvoW514CCJRBiOwv+xyU5sVSvd5JCHiPGIE9pdEedqecQhygyUk2SOwtxxM/pYGSwgiENhb1OKbftFir+QWsCiHwL6iRnCm8tBqMuI4a4te4i4wtdF8JDYGEHcC1QXP2qKX+LP8CmHNPAQ1P3xPrQmKY9rEhbKmCOwpYceK8bYVQ8St9WYXDspEYE+JrBHERtNDIzA4RNIV47besN82cWHPGgJ7ytkeAhddtPNbgxHYUx562uafDggMDtM5z6tGedFsDXoRBPaTbj0RGBwGgUE0CAyiQWCQTU+BnU/uRGBP6ZxGuzKNBg6Tdi1kqA2Vzu8IPiGwn6jdZpakoc61ZjeIEdhPVITQzOd8EnTGGG6AwJ6iUpLNWW8HGWM4BPaW1B5DJDJCYAT2lqt1Ii1sbQd2FAT2lTzrzdDHqv5ZQGkTBPaWyNLJqtfOM7foFRDYW/IuWDeOy2ueCOiAEdhj8tp+p9ZALvfX/Tm0DQJ7TV6cPa3ntpU1292fgtggsNcURfyy09PVsrqqLWPZIRDYZ0qDs/R4DcNwGyXFX4gIgDcI7DnaI14E9b9K4O+lGwHLcdXqG0soDfzgLrALBVZgKTSdsKSD4hAYdtG5qu9JSvTwAIHhxu4QxcmN6CrK3g0Cg3AQGESDwCAaBAbRIDCIBoFBNAgMokFgEA0Cg2gQGESDwCAaBAbRpAgMkkFgEA0Cg2gQGESDwCCaVQm8D28s3QiYlbUIHBziMrErvoqoKQNjsA6Bd83MWkl5tfAOaxBYW50jkZadCC+xAoFDQ20Z9893gPeRL/Ch2u0mSfr8k/kEE1gN4gUu/Y0PeTmk8IjB/iBd4G2hb3XioSwRisGr5y6w8yeSm9nlpjYP7NvnkYSQGqHwMvcb/bV0I14nL2fbnnEoKt+KqbIIryFb4IPJ39JggoiVI1tgtfimX7TYK7lZlFs3ogVWIzhTgXk1GXGctUUwN6IFjo0BxJ38HLRZWwRzI1rgh6Dm83xP2gkKWBWSBQ47Voy3xBDrR7LAkTWC2HT20LACJAucdMW4nW8A8UgW+NzVwUaWWTZYB8IE3t4oF9fUBjTLuw8IvHrmEzjYNvj8a3BKm2Q6ymmFzjGaGuUJ3uoBnfQTeN+U76sp33fTvbNWvjEoBO7WE4HXz03gy7+mfL+TyTcGCAwln/8ul58lbXwBBIac7aP/XULCVrT73YxJvppRS2u+F4E9Z6+mSfUjJTM/ne5FTfc+pvkCPQUmuXOVBKeLEvKf1T2XdxI8mm+bRrs+3sE02hqJ8oHa+XPplrzO49lhW8hQGyrZEbw+Dvkk1+UoOeVG7TazfAOWktdJWIzbvmV3TipCMAc5QWeMAQLZfef6/pNefEmlJJuz3g6M4dZHcMzHbucVZJyn9hgiIQReHZ958Pu7isnRq3UiTU2isR14RXzkc76Xk+Sx25M8683Qx6ovu4IHDSh2eRWQFVUejSydrHrtPHOLYCrKhYt0onWxJci7YN04Lq95Qge8EoqFi1/BCxca8tp+7ZAo95c5tHVw+FnDwoWOvDh7Wo+KyprtTEGsgf1KFi50FEX8stPzu5XVVasZyy5v6gAbQbFwka5yV0tpcJYer2EYbqNirFoLgKPse20PHz+wLlzcbvbj9p+T41bs7dUe8dLqf29//FnN5ItHFAsXl/Zsf/NoqljTQatnsfZftrw0N1etvnHlJxk8fsUXwghhhOaFi9bJapnucDUZAus64cZ3+VTPIcmHKfiHbeHi0LrjD5o56kIEvn3XqJYFfWp94716PREbKXlH8JcHvz+aB6cxbEzrN1iMwDd2hyhObkRXbawbqJ/zeZUj2RXyZVu4KP1Nr+Hd2P3hpDdYksCdqPyMy7pWclbKtli4+NM9MgtbK1Onz7nTmsGrEnizVc8k5tNcZ18Ev/qFizz+bT5M82dsrWL/ugQuDt9K17eesya6Fi522mj3Tt4z16b/VyVwcW1+V7SfaXVExcKFKdZLTP6WBj9fWpvAxeXRTIuDE1gWLnJUnsJZHweqR+zz/12fwJsP5tPcpVi4sI1T1Mk+hjUpZfdTyxUKXGyeYGHZOcp0Y1vGhYqAjYlip3oUvEaBiy/JfJpbWBcunlyb47Q6+/pExDoFZmHZQT6LhYuOatVxY5jW5FzzcqUCFwvL2pEsLECZbqxduKiiYgzz62q5qpiAW6vALCw7RblwkXTO0O8b0wwt6iV1Vytw0X7m05bnmW7cozvZ2kPgIs+3CIJXLPBmq4IuFpYXZlid1O6T02oxRplcZuL99i/HjoXl5SnrpEb9OhJlpO2W1UqSrlrgYmGZRI3FeKYb930Oxp3aeSRwOZ9GILwIr9RJ7S757JXAm5CF5aUo043tCxcNELhBMZ/GwvLMvFgn9SWBte8TPwtR8Pf4Iiwsz0r/hYsGRwRukQfC30u3wx92/RcumijtbM/LR89en0az/EtDP99J9ioBi/m0eXirTqpKJ+qcB/ZhIaNCHgiTqDEH7x3wxlKyHhI1ZmL7bp3UrBohaKgfXeWNwJsP1S/EzKdNyQh1Uru2U9YP/vFH4GJhmUSN6QjGOOBNBcHG3Ty7Wgjsk8CbTb6wzKEE0xBEoxzwpnabGY8+8SKlyASJGhMy2gFvSlHD8ZVqjPeMMPwSmAqAk2GpkzqUvK6JPgrxIK3eCokak7CL8+B3lAPeVBfsa2GTLqgAODpluvFIB7zlZ6uZS0tVwgv/BKYC4NhY66S+RH62WnM9rijuV50k9lBgKgCOytsLFzqOucG+lVftCRUAR6OjTurLlOWs41aB6/rozkuBywKJLCy/R/CdB7//Rh8UGzeqCz5iYExI1BiBcRYuDGy1+mbNQMVXgYsKgCRqvMyhs07qewTHtr5ij9maAioAvsOICxdGdg2FT2IPOpyGfGH5tHQ7BNKrTuoYhGs4anYyqAD4Il/FwgUFN5alWFhmPm0Y6c8Dw34bmBEqAL5Cmj2eXb89q0XBhHxQAXA4t7BUrb+h8PJ8pj/n7JIyGTGAm8DFydUovCj70+NGXH6zjrr3UOU+MfCTofDCBF/FmU+3/yLwAO7X7VTsgkDhZfiIL+UNuCDwIO4C/5WTaVMrHP79/XF76uyP5/Li3wLgDIEHoQQu9qVOrfBXZjk2zkeCz39ZhWSPwAPJBd4Ep2wGhRG4xsf3parvPQsGgQdSCFyeQzKpwgj8ZBedq/bm5bsQeCBPgTdB7Wk2icIIXPCZ1Owtzx1B4IFUBH7uCp5MYQR+sP/+behbrr4h8EBqAhd7oiZTGIHvCYH1i5zVNgIi8EDqAj9Lok2jMAI3Q4esUcEAgQfSEHizOVwmVNhzgfen35a+jdLLCDyQlsCb3b9sMoV9FjiI0pa97QoGCDyQtsCbzfEylcL+CnyImxf1TnvnJAIPRCfw5qM1zBhJYU8FzjeaNdElcSHwQLQCb4K4dbVHUdhHgZ8bzerok7gQeCB6gcs02ZEV9k/grTZ0MB+bg8ADMQlcHOMwrsKeCVzbaFbFXH0OgQdiFLg4FnVUhX0SOPhqTueUWLLeEHggFoE1Y7l3FfZH4MZGsyrWAhwIPBCbwGUV39EU9kTgnSl0yDoLcCDwQKwCb6qpGmMo7IXAmtXi55XryjhG4IF0CFxL1Xhf4fULvDeHDr0qhyPwQLoErqdqvKvwygVu7lFv0KdyOAIPpFPgRqrGewqvWmBb6JD1LZ6IwAPpIXAjVeMdhdcrcGuPeoOfnsUTEXggfQRupmq8rvBKBdZuNKtdpt7VohB4IP0EbqZqvKrwKgU+JJZx250hpz4h8EB6CtxK1XhN4fUJbNhoVmXQqU8IPJC+ArdTNV5ReGUCmzaaVfk3rPA9Ag+kv8DtVI3hCq9KYNNGsyp9x24lCDyQAQJrUjWGKrwegfd/naHD7ZoMVxGBBzJIYP32nvJ2/XUqvBKBLRvNKly6r0cbBB7IMIF1qRpDbtkqBP7oETpkr57Yi8ADGSiwNlWjv8LyBbZtNKsycOxWgsADGSywNlWjr8LSBf7sEzpkL4zdShB4IMMF1qdq9FNYtMChbaNZlRfGbiUIPJBXBLaP5WwKyxW4Y6NZv99vDxB4IC8JbEjV6L6LUgXu2GhW5bWxWwkCD+Q1gU2pGl0KixS4a6NZlX+aQ8wHgcADeVVgU6qGXWF5AgfRT9f3fPJzePvzEHggLwtsTNWwKSxN4M6NZlV+xzjlGIEH8rrA5lQNs8KiBNYVQx3wY30NBB7IOwKbUzVMN1aOwH02mlV5c+xWgsADeUtgS6qGXmEpAuuLoZp5e+xWgsADeVNgS6qGTmERAvfaaFZlhLFbCQIP5F2BbakabYXdF3ho6DDS2K0EgQfytsDWVI2mwq4L3HOjWfuXORoIPJARBLamatTvtdMC991oViUeaexWgsADGUNge6pGVeHYWYGDvhvNqqSjjd1KEHgg4wjcub0n58dRgXtvNKtyHnHsVoLAAxlJ4I5UjYJfFwXuv9Gs9lVGHbuVIPBAxhK4K1Uj57KEwLttTvSX8y/Neag4dN4hG3/sVoLAAxlP4K5UjQfn0QXusLMXPwM27DwYfexWgsADGVHgzlSN7BEEDxF4DDt78TNk28MEY7cSBB7IqAJ3j+XSisCz2dmLtO8wbpKxWwkCD2RcgTtTNVI1E+Eil14KTzR2K0HggYwscFeqxs/DYUfpHs1dThON3UoQeCCjC2xP1fh1twe+0zGaSyYbu5Ug8EDGF9ieqnG5vLBkMCOW0dyUY7cSBB7IBAJbUzXOLnfAd0wryqbDjUcGgZ3AnKrx424IrDAdKzbTlUNgRzClaqSO98DaEGf6sVsJAruCIVWj93TrQvxk7XbPMHYr+fr7+5sj1oZO9Kka7kcQzRamH0tfSVgITaqG6x3wrQeuCzzT2A2cpJWq4Xr/ewuBa228zDV2A0epp2o47+99leUZA884dgNXqW7vcczfS7F1KCk2E31uvx9blhX9DjeG5dgfoji5EV0nvFVlqsZlXn81dubYutX7hlD1k2Ps5jiNHNyTbu7meNf7qP3fLS81UakalzEngFt2fvWxswd3ge8NZezmOLv2foWkrfBjb2Si/QcsL7U/7Nb3XvrnnU1mZw/uAqeLjd124TW6ERK7dBFpzYmbgowk8M2L33PDzn+FnVFh54yrBWYeAi8zdttW+5T4oGvD4a63fj+95aX1Ydx1fm789EcTWAx3geMlPvjQekJpTj71735oCcrR1Pl4DcNwGz2Frhvs3wVbSOBQG2Bdm2/z737oKP09PW0NypiiZrB/F2wZgfURXTum8+9+6MintdJ6Z1vuQq9eM/8u2CICP4PfNL5FssfnAzGtG+zf/dBwzbvf1gsH9UL1Ivh3wZYQuPD3fC3HsdtEa7B/96PNzuRvaXDllFT/LtgCAhfxQz3iDfNAr1ZFw7/70eZk9Le4lOfnX/h3weYXOMxFbc4iFjFddbHIv/vRYtcOdCuosfBzNtG/Cza7wMFZF+w+yA2ujFX8ux8tooaidcJGFOzfBZtd4MjobzHcrlxk/+5Hi7OtA1YZWVlWPs38u2BzCxxk9Suue/G5xO/f/Wiys0TAd6714YR/F2xugdXA2bT14tq4Xf7djybqem2NryvByzvo3wWbW+DGI69J44Hp3/1ocrJHEMUFLf7k3wWbWeCg3mG0ONaHLP7djyZJzU8Np1qP4N8Fm1ngrXVMvdns6zGEf/ejSXNY2yKqDRuU74mOzn9JJjMLfLRHEHkMUc7MI3DHE6uYSCu6hI5ivyu8YDML3PlEjGsxn/cCqzGaLd0grL0DgSfmlSfiOdJxXuf9aFDXs/sdCDwxnVdRBcnFtJF/96MBAncxr8AB92MYLwmchjrSdV6weQWmQxnISzGwV4MGBHabx9c0ryRrYy4EnoyXBPZ5EPfSqBeBJ2PPE3EgPecda2/36oItMQthq2+kmZf36n40UR2spfCL7ys/rk2j+f5EbKJC3Fa9gRLv196XWIk7W95Q333l3/1o8bge5uO2j7UxnIcXzLW9EL7vDmxxqj2SmuQpAOWf/btgMwt8qIW4bbzfn92imfVWJ6pHEB5eMMf2A1/rgvt3P9oklihYRcCVJ5p/F2zujIzYHkOQkdEiL0Ogm4jIi6ZV1jn8u2DL5MSZlpYOjQ7av/uhITYZXBT9q3QH/l2w2dPqz5ZBCVnJOvKr0ho57HN/q9GFfxdsdoHzel7UhehPHkRkcTXyKuur1p5m/l2w+UtLqX7DUpmn0jv7dz+05D/6m6zFoRPhsfir+hSxfxdsfoHzkXPajOmojWamNDh7ZGxWjr86+V6PdoHqlHm9W1N1Sr/rNRswnCTf2hfl3wVbtD7w82CXsj5wRn1gLYGuqH37ZEr/LphrFdp9P7PETOuguFgzlePfBVvmjIxDpifhjAwLweFURhLxVbsYtL9nv+k3X1peksxCpxTttclCnFLUzcPDpRvhEJwTB6JZTODNJjxVHI61O9Q4qRM6WFDgDWclw9ssKzDAmyAwiAaBQTQIDKJBYBANAoNoEBhEs99ut8zCAgAAAAAAAAAAAKyT3TY63Y+BPkbkqIA0gmtazefRZkQcHseca/93y0sAk6MpM3BuK6zepP0HLC8BTM1Wm9TeqvaEwOAkR62/WauCJwKDizxLvJyie5WBKDYYjMDgIIW/yfb5d2WVhprBCAzuURSH3Or/ujqjhsDgHEV53lYZnPyFanlIBAbnMBdIzw2uFJhGYHCNg9Hf8iyGZ9lDBAbXsB0SlA/vnqeGIDA4RthQtE7QiIIRGBzDfnR0vsJRTqUhMDjGI4I4G19W47gyzR6BwS12zXmGJuealwgMbnHQLWFUUTFEsakHgcEtopqfGg61IBiBwS2SLu3ULEVxfJ6yNNFxRmCYn06BN7VpNt3hejVmaDLAk0e/aU0EyqrvQGBwi5qe3e9AYHALBAbRvCRwqOOEwDA/L8XA2vcxjQYL8JiFMK8kF9t5iqU6BAa3iLu0080Da9+IwLAAnStxKjMurL3d8i+N30IAC6qDvZrfoMZmRU4GAoNbqBDXcipRVguSERgcQwXB2oy4O9vaGA6BwTUOtUFai6QeIyMwOEYz661OWI8gEBicI7JEwYHaI3lovNny70zSRAAzeResnYg4NTpgBAb3yGugaQqy50X/KglHCAzuoQZqrczOIK+xWo0uEBjcIw8isrRWHaKor1orOoXA4CBFGcosOeRLbvtrUR64Uhhtg8DgJvtSV5Wx+fxTWvMXgcFNgoqzVeLG/DACg6McNPqeWwVPEBhcJYjOdX1TzcQaAoPDbI/lWZ1JpN0jvHukv2n/Z8tLALPx8NC4OQ0AAAAAAAAAAAAAwCX+AxghMF65sLG8AAAAAElFTkSuQmCC;" vertex="1" parent="1">
          <mxGeometry x="299.6" y="1020" width="200.8" height="170" as="geometry" />
        </mxCell>
        <mxCell id="izrISh038fEr5S8gg0W7-30" value="" style="endArrow=classic;html=1;" edge="1" parent="1">
          <mxGeometry width="50" height="50" relative="1" as="geometry">
            <mxPoint x="480" y="1200" as="sourcePoint" />
            <mxPoint x="480" y="1440" as="targetPoint" />
          </mxGeometry>
        </mxCell>
        <mxCell id="izrISh038fEr5S8gg0W7-31" value="" style="endArrow=classic;html=1;" edge="1" parent="1">
          <mxGeometry width="50" height="50" relative="1" as="geometry">
            <mxPoint x="320" y="1439" as="sourcePoint" />
            <mxPoint x="320" y="1200" as="targetPoint" />
          </mxGeometry>
        </mxCell>
        <mxCell id="izrISh038fEr5S8gg0W7-32" value="&lt;font style=&quot;font-size: 18px&quot;&gt;Hexokinase&lt;/font&gt;" style="ellipse;whiteSpace=wrap;html=1;" vertex="1" parent="1">
          <mxGeometry x="160" y="1280" width="160" height="80" as="geometry" />
        </mxCell>
        <mxCell id="izrISh038fEr5S8gg0W7-33" value="&lt;div style=&quot;font-size: 18px&quot;&gt;&lt;font style=&quot;font-size: 18px&quot;&gt;Glucose-6-&lt;/font&gt;&lt;/div&gt;&lt;div style=&quot;font-size: 18px&quot;&gt;&lt;font style=&quot;font-size: 18px&quot;&gt;Phosphotase&lt;/font&gt;&lt;br&gt;&lt;/div&gt;" style="ellipse;whiteSpace=wrap;html=1;" vertex="1" parent="1">
          <mxGeometry x="480" y="1280" width="160" height="80" as="geometry" />
        </mxCell>
        <mxCell id="izrISh038fEr5S8gg0W7-35" value="&lt;font style=&quot;font-size: 18px&quot;&gt;Glucose&lt;/font&gt;" style="rounded=1;whiteSpace=wrap;html=1;verticalAlign=top;" vertex="1" parent="1">
          <mxGeometry x="280" y="1440" width="240" height="240" as="geometry" />
        </mxCell>
        <mxCell id="izrISh038fEr5S8gg0W7-36" value="" style="shape=image;verticalLabelPosition=bottom;labelBackgroundColor=#ffffff;verticalAlign=top;aspect=fixed;imageAspect=0;image=data:image/png,iVBORw0KGgoAAAANSUhEUgAAAfgAAAF/CAMAAACSQystAAADAFBMVEX///+AAAAAgACAgAAAAICAAIAAgIDAwMDA3MCmyvD/8NT/4rH/1I7/xmv/uEj/qiX/qgDckgC5egCWYgBzSgBQMgD/49T/x7H/q47/j2v/c0j/VyX/VQDcSQC5PQCWMQBzJQBQGQD/1NT/sbH/jo7/a2v/SEj/JSX+AADcAAC5AACWAABzAABQAAD/1OP/scf/jqv/a4//SHP/JVf/AFXcAEm5AD2WADFzACVQABn/1PD/seL/jtT/a8b/SLj/Jar/AKrcAJK5AHqWAGJzAEpQADL/1P//sf//jv//a///SP//Jf/+AP7cANy5ALmWAJZzAHNQAFDw1P/isf/Ujv/Ga/+4SP+qJf+qAP+SANx6ALliAJZKAHMyAFDj1P/Hsf+rjv+Pa/9zSP9XJf9VAP9JANw9ALkxAJYlAHMZAFDU1P+xsf+Ojv9ra/9ISP8lJf8AAP4AANwAALkAAJYAAHMAAFDU4/+xx/+Oq/9rj/9Ic/8lV/8AVf8ASdwAPbkAMZYAJXMAGVDU8P+x4v+O1P9rxv9IuP8lqv8Aqv8AktwAerkAYpYASnMAMlDU//+x//+O//9r//9I//8l//8A/v4A3NwAubkAlpYAc3MAUFDU//Cx/+KO/9Rr/8ZI/7gl/6oA/6oA3JIAuXoAlmIAc0oAUDLU/+Ox/8eO/6tr/49I/3Ml/1cA/1UA3EkAuT0AljEAcyUAUBnU/9Sx/7GO/45r/2tI/0gl/yUA/gAA3AAAuQAAlgAAcwAAUADj/9TH/7Gr/46P/2tz/0hX/yVV/wBJ3AA9uQAxlgAlcwAZUADw/9Ti/7HU/47G/2u4/0iq/yWq/wCS3AB6uQBilgBKcwAyUAD//9T//7H//47//2v//0j//yX+/gDc3AC5uQCWlgBzcwBQUADy8vLm5uba2trOzs7CwsK2traqqqqenp6SkpKGhoZ6enpubm5iYmJWVlZKSko+Pj4yMjImJiYaGhoODg7/+/CgoKSAgID/AAAA/wD//wAAAP//AP8A//8AAABYWvgoAAAAAXRSTlMAQObYZgAAAAFiS0dEAIgFHUgAAAAJcEhZcwAADsQAAA7EAZUrDhsAABazSURBVHic7Z3ZdqsgFEDz5v//osO1NVZrbVb65o0yCMhgFFTg7JeuNjYxbmU4HOB2AwAAAAAAAAAAAAAAAAAAAAAAAAAgLvKyatoXVZm5/7DiWY2f1RzyYYCa7N4PM/0zFQ8YNbWl9H81L8kp6oH9sLvEfT69aS77b81LwJvk7SBSCYdI/2h8SUax/LB6ob6Y/l5I/1/9EvAW6X1h4kXHy7AlPm1kH7b4dxDvnqyTqhgGrjS1JD7vFR/W8pULiHdOTq99UyVFUTzn2p41b0f8/GFdVb4+rLzTu67jzIN416T4uvflfOGLbunCinjqvZrrkayWmQfxrsGO73xJi2v9+/wXG+JTXJY0/IeRuqZl/gbiHVOha77ojOG/zw+mDfGN4sNu+KFn3gPEuyVTqcCSavq7BfGJ8sOI+fk+A/FuqQW9M5mgwoL4Xun9dmuFEwHxTsEtu0WYbgQV9k/y637x5aIiZxDvMxDvlKfGWcY/g/vFt0JpzlPx7wLindLpXDTtPZnLgt3iM90DTwqfnvwK4l2CXHSrjt0tvtTU8COoNUliRiDeJcnaZtnNgvha3ZyYKLk2BYh3SfXGJdwtvjeULqisb/BvIN4lreEhZNktnvMqo2creRDvEiR+3bGo7dXKWCW+MB7FnQ06vJN9XAfi96JvZ0uO1bBO/FNzBKp4MvZwDSB+B0eKL426uBYHiHfJkeLNDUkQfxggPlLeFl8XMtyJf8o+7gni9/K2+NXdueJZVVXCxoI31fHQnXPD1IHqzceNvCGeJlMN3RyhRbp02fco6ydlDwfxbkDh8XXHrhdfsVUxTZ7NjRWCpB8P4t2AFK2bk7JaPDdLhkmhnH7TRe64igfEuyTRF7/ctLa14nF+VVNVOHOaqDSFCfnxfxDvkpS71iKvwrmbR+TXip8i7hX6r6Jnbqy7oXh5cnchiHdKp3sKkQkSZF0pPuHKkCmfGhfvqJK/y96AORdyn4F4pyC3ifxFPj1npfiaL0IK5sbqObMiBd8GAPFO0aVD4fEx8utK8a1wI/Vz8V5p3oI0AWhZAeLd0qovomBi7RPf81VHO789TumV1/Ko7JljCiDeLegi9pLyF5mYS+aV4l+lCNdLaJnaolJ+GJlUJ8Z7QLwz0HPdLWRgE7Pp1eI5UqaOJ1Pnlh9GPo1JzALxjiGXXEixxoNj/d706optsNF3FUt73PdnawEQ7xoSYGVzY1LyR+bqbhKfCm9C3rdiH3oa2mfrCBDvHLIiTX/HD1xOV0ZhZW4SP74312eg8dw7afEl85/YA0G8c1JmJZSOpE5OcCG9LeJrofy+0Yn30532+jBmYRQ+HQ/EuycVhlVkz/sm8bVYfo+U8g8To0gg/gieEhG9cGXfF18vSo2JTLbsVS229EH8IaSVIKJfeHxXPKpBpANAhah+ucwdiD+M5E5r966WRO+ndDf5vFrZS7na+4vsSd33dSmL6KTTm0oD+5qXgG1Ml9TKWqHmRCt0v8DCpGHxXOEdCA/UTYCnOTYm75KIPBA2tbR/BoROpe73AQFTQLPOP/IkSXY2yaYxd90seOCC/A36KQ8rQAU9D+w6c3UsiJftQwDR1auzX3wu8Q7iL89+8bJxPhB/efaLLyoJUMdfHQt1POAjID5SQHykgPhIAfGRAuIjBcRHCoiPlC8QHycNiI8TEB8pID5SQHykgPhIAfGRAuIjBcRHCoiPFBAfKSA+UkB8pIziv84+CeB4RvF/Z58EcDwgPlJAfKSA+EgB8ZEC4iMFxEcKiI8UEB8pID5SQHykgPhIAfGR0oL4OOlAfJyA+EgB8ZEC4iMlKPH5uNnR2SfhCaGIT8uGLqbcPGFhTSNhiM/ELVNbePANhCBeulNuCztiaQlAfCFbPnuATTP0+C+e3au6bVtmh3TVbqfALQDx1HtDNqwt7mDejO/iE6KdbcjTnbLBvJJR/P3sk9hOhg2Le2HnuMSHTdFUjBfo8+yT2A7eB33Zgk+xedj9UoHf4kuVd2oeCnsFfotHwTp5sAbvjgVBPDlei0ctO9X0ftS497gB4xSvxTfKgn4kRY/8oWfkD16Ln8R2ypdraYMfmPBZfGGIzCZQ1qvxWXylLelvxhIhanwW35rqcOMBEeOz+N70QFea3l7seCY+eUGDcWhATnN0CeKVHCc+TQQ+/gTqTmSQQZvpxrYbav1VB3w5/1gnPhelfYrSvkRnvVSaDYh4s1YQr+Yl/vEtSvt1Js0GIN4CH9+Px8+ZFjcA4neTTM/7GfIWtfmXWHd8irXLor8O4jeSo26uvAWl5sforBKd/XPzBVaKh6RLjrR+IJHfWmdXjnRPp6/rzj2nI6A7x1LhBlz/cfaZbGcqq3QBHDQwCyPyMyXubD3uPqcmodE3zTeAkC1PQdpzX34/DKgkV1dGqbEuiIrsC2v/9n2SEUqxVWfVldC2m0nvuE3XB5B53OnL+haqeMoHrtx/g+jcPrUdOtSZg+H4F/9wn/1R+9ymm8FZdYpnGn3ZAAq2vWR49kFAM4grzUONXusPPqPrQQM2naM42hngR17WvsNzLaJ/4EnA5tfjgI0EPGdyWXVh77H35cqfEAI2MvBiGB1fe9E1MuJu0ueBBGxkkMmRQz1/NzpLms3AvfKggxtSErDpghytoOaH7v4siiKpSBuWq+Cr4Su0wk6PNmDzukjTZevbe+LtZZEufbR43l+//gTTmVkBCdg8llEOcYmwRlIgoDJT+s6al47mKdXeMLdyOt39j2iK+0IdsFmsDDfIFofzQ7zsoRe+ywcq93xe9GU9uoBNubhSE2KusifiX9+14rJ668U3ztHrrbc12mrSP1y5/0gKOGW12PEXxhvxL7KyatoX1VNal6foMeiDbOEyfOoCNtR79yxG03lZy837JN4Iysd5hBXBEkhIwOZPVrQRy0zXd+77cuaDEn9LUBkYbr8uJ5W7PGCD63ex0MNlIbeySFjiySJoXXhxrBFTwCaT1uYjuCTgwh5BiSfX5jegcSpKRQI2qrqsVXmn5ueXQhNPLo8krOE5moANBuWl9PJ6DhWF8/+GJ/72L8R+HQnY6NovaKUoRQwLrwBOfw9QPAnuBxTApemzugwbVMMrE9FqvpYPUTz5kqH067QBm5mn2H7jyfmGfZjigwrgfpCAjWGVg0Zovon0nM9AxZMArrSF6xU0fVYasGFBdYH6dRTeIh3BUMUHEsClAZvWGJnIhWb7An5KebDiyfn73K+b02dX3L6Jvooneaukkg9Y/C1BlaO3Adz35jubV37j6gKavKZi//mfR+ZzAJfOd67W3bjIpO6rclOLgxZPArgeJubM6bNry6vGqCsi8bRf51lFv2W+s3mpgKjE3wr/Arg0fVYfsBEA8QKkX+dNAHfjfOdN4qXHed+qJ/xNX8STAO76gI3AHcQvwBX919nnYSZbH7ARMa7tj2K2fHdO807vfv4lyVGi2tX7dbvmO5sX8p4OiCGAw4Ar+msn5uxboA5CtnIun5iT7J3vPLAluQR+CbFoxN/+oeepuWa/zsJ8Z9OwLL+QVDziSQD3iok5qY0F6lAlrxylybgqPibxtxsO4F5t8ZS0srJAHRp9Uy4JFEXqlYpLJuZYW6AOqVUs94g34qU1QVziLzizUjPf+V3wfAp5bRFBerWWiyXmZA2u3K0sUIce+VgnVJi40MxKmj5raYE6vDacegoVUw3EJ/46Myu18503gdeGE+N3ZNIk28mPUPxFZlbuDtjIuGPzsU2TXskFZlYa5jtvhi6D0CwWRuBbfVGKpxNPzwrgpl9kuyDrjUxlgoXHS6HY5NTEHDsBGwWJVPsgViixiiczK09IzCmN8533kd6X2r1d7swF58ystBiwUZIJ6mtvFzh0Aw7gqre8sc+q+c42KEJY0tQZh8+s/CQBG/8S/cOCBHCP6td1PxOwbdb5HDuzshumMuZ35awowCH/jpxZ+ap2UbwO1J/PR/fTD4/ukMb9SzxZkRfUn0peTyIev4NhnRE7jA3tnwHUn0z6SdYQe/08THw9768B6s/gX/OgAh4Hiv+jnTrX6ou/v79DvpZH5Hdm9fvH6ONA8WRc2LX6zwH2X+VIP74HhjY/Wjy/4YYz9SCe49/Xg9U+Zj0dLp6uz+NUPYifETY4wdPUThB/S7lSx4l6EE/4aDnrdF2hM8TPo/LO1IP4ifzrV9BOo3XniCdjRM7Ug/gx4ZC/yAM3MHqS+HnKnBv1IF4s4gchk/0s8bdb+XCoPnLxef270C4sPXCe+Fv2PThTH7P4tOoW1peZ7CeKv93uD1fq4xVfNuJFHVmOwJ4qnmylYl99pOLxwJuILNntXPG3tFmcpRX1MYqfB9545MluJ4unaZ+W1ccnPpEW8erlpE4XT5Zpsas+MvHcwBuLenbi+eLJ8ptW1cckPv0Uu0cUTVbdFcRL2nh71ccjXhh4Y9FOYLiEeDqL3Zr6SMRnqiJ+ME5guIb4G5uaY0N9FOIlUdn5ypkyaK8inkvN2a8+fPG5uohfteLEZcTzqTl71QcuXsytEFiz4sR1xAupOfvUBy1eV8QPayelXkm8kJqzR3244he5FQJr93S5lHgxNWe7+kDFSwfeuMu0elbUxcSLqTlb1Qcpvmw17bmRd1YRu5r4RWrONvXhiVcMvLG8tYrY5cQvU3O2qA9MvGrgjeXNZd8vKH6ZmvO++qDEqwbeWN7ap2/kiuIlqTnvqg9HfP5nLOJf1+R9hdcULx+2oV/TvC9dIOI1A28Mb+/TN3JR8bLUnHe+ahDi/60o4oetK8NeVbw0NWe9ev/F6wbeWLZu5XNd8dLUnLXqfRf/saaIHza06SgXFi9PzVmn3mvxhW7gjWVDm45yafH6Np5Ovb/iDQNv6+77FVxbvCI1x/ztfRVvGHhj2bna/8XFq1JzTOq9FG8aeGPZvdr/5cWrUnP06v0Tn1Y/pu8587N/tf/ri1em5ujU+ybeOPDGsnt7xhEPxKtTc9TqvRIvm9T8xk2+DS/Eq1NzVBfEH/FrBt5YbO3g5Id4TWqOXL0v4uWTmtXY28HJF/Ga1ByZei/Erxp4Y7HQpqN4I16XmrNUf33x7xbxltp0FH/Ea1NzRPVXF79y4G15R1vDJ/Ha1Bz+Gl1a/NqBN5bG9qawXonXp+aw6pvLik/XDryxdPa3fvdMvHHYBvNzUfGrB95YnOzK6Zt4Q2oO4feK4tcPvHFfxc1uUd6JN6XmYB5niM8STPWH+e4wk8J32/GD/TYdxUPxptScid66eIPVVfy8MRAzYb1NR/FRvDE1Z5gq+XfE27C6ip93wvIO2nQUP8Wb23gdI/4wq6vo1jbvnLTpKJ6KN6bmdMxmZxfjsUq9ozYdxVfxptScn8n9RTG38lzutI7wV7w+Nef3uk/8iKGV1zpr01E8Fq9PzXk8NoRKDkTTynPZpqP4LF6bmtNf+YEfUUVuVYvPWuYw8W5Qp+b8XLeKR6iWdzvoynkuXp2a0138iZdWRe7bdBTvxatSc1Z3l0/iZ1ie9wFtOsrn39/fEW0Jh8hTc65f0otnyG0SBaxBkppz9Qf+9cTz4g9q0wXGIjXn6s/7q4rnzvFxVJsuOPjUnMt7H6NLcx1/YJsuPNhhm4t5f5AhoZYMEn0kX1PKAGLd4rM+kpdV076ong6/Ik3NeRzrXWIVo3uMx4FldKsG26YTckprWR/iPt4Wd+m/a14SQak5D5sd+IXVzzVWVzCKH0802DZdtoynt0v10xhrK30DzUvLD3s964/1eW3OrK5gFN+d1qbLimf1onBXAFfSK96IF9aS+Nf1/O0Fq9/EakWsHhglUTOJP6dNl7DPYlPKzqEcbwt5HojmpRlltkQv3GrWxHvDKL4544PLRYkoWSl0p4+UtrL6+7MoiqSabwTePIg/iEJaET7Fw/b5oN7r2XJKy37OPIg/BnnNu6x79/nA3auOf7hp9gT7WSD+EObKvWteNfV9LoA73vwuH0/8uC9eKNEL7D+D+CMg3vsnbd8mrdT8Hh+Zyjs1z6zGCeIPgJTzfI1e4AqZm4Wwx0et9E5OobfzQX5yvPgCCxZ7s6TuZYNkO3xky4qcAbUt594giHdO2ssq8wlsnmmL7fBRCWp5CqGWB/HOqZTeSTOcucg7fPS6Bx5lfA0DLXVAvGvSgb/ishfnUPp2H5mmhh958s0MEO8a1KBWDQ08BV3bfaDPUa+ij24M+s1BvGuEIlZEKKC3+6j1JT05kf0f5CsHi0/5B23BnW+SbffRcl4l1NwdCOIdk2jb2rdbzpf1232IzcQFFdecQPdJK8P4Tn5ysPi7vqTHZT2NrOwUr/tiBXcLmvZlAPE7MZbADVc3bxaP2m669JKCOwLEO2ZLCdxXMnrtO/FazUeAeMcYryJqBJBu2GYfIN7EseLTo3xsEt8VMjoQv5/DHsRNdTx055xxXAk8vayO2ErrFBDvjE3itzTuNrUiQbwz8sNK4JX9xhXvBuJtMF1t3XwkSVxlkw/0QGsmatiKFPnK1bpztkpgVIUv8rUp1mLDvnJG5K7XHMCPqu3wMb2PehnhO9e2A/GuMcbqrY2W1lzRIYJTPta8G4i3QclV4Uvs5UeIWXU8FV/Sg3jXmMbjn/yNscdHq6nlUQ3PlDwg3jWNvqy3loFD07hlDXs8qY6J74B415TiJZe8Op/PLh+NyjyZTMncfiDeOb2m0WUxy3Z+t0WLgqw2ztYCIN45eN6a87z6Gy3s+Q116DxprtQB8e5Bz5tmJg1TGuz0gW+yl2SyqExxJ3/iu/gg3j24Rd2Jda/luXMT1PwwZVIyy5DVFudje8kJs2XxvHXVbFmr6xWoNn0Xx4lA/BHQ+fHzgkd0fvxgbX48IpUtvrFcyRHEH4JmRQz7axItFrprJF0KEH8M5SCntboGDiEta1riN09p8Cgfs+vkg7ial3zmpFWvcmlSleVVr/hPHP1tPt/wCHqdO0DNaeJf7fiacd9IR+z2rmwJKDlR/O2ItWwBBeeKB04DxEcKiI8UEB8pID5SQHykgPhIyZMkgV40AAAAAAAAAAAAAFyfLKnqaavkCnKS4iF9crucSzNgymn5Zum/a14CLowk3bxfqkcHSd9A8xJwXRJpcvNiVhOID4y71PuwmFEM4sNinlpSV2O2edUozIP4oCDeW2aPJprlzpkH8SFBJqsm8j+zPTsQHxBkevpi2gp+gZ2uCuIDQr0gBTbPLEwA4sOhVHqna8bM00lBfDjoFp1abLkO4oOhENTypEItD+KDQb+0r7jDJ4gPBn55/gWofUfTrUF8KGRiu12k53yC+FAw7aqOy3oyWAPiQ8G4Uwu/njyIDwXj3kz8JlDIrnRz7R7E+4RRPL9Rn2xxQI4DThmwgWGXvpuwTRSIDwVOq/kIEB8KID5SNomXbq5dg3if2FTHS4+D7pxXGDd6RMM0JLQH4kOhMemS9eOlB4J4rzBG7lDmXcEdrnkn+2cIOAE90Oo9lvGwLcnBAfGhYNrhE7XtaCMAxAcDquSlGXcjCde2A/HhUHKNtwUt3wYA8cEgZtXxFHxJD+IDotLU8ikaay2FgzXv4+QUARfgR17asK+FBx7EhwSeIydZAANPpmQSs0B8SOCNv8SMyxTPlWZrARAfEmRb9Y7LrifzpLnJVSA+KMi02KEtcYguf9KNwLh9GEF8WLBbLI+Jk/NvHb//JogPjFS6weerfhf69yA+OGS7+vaLiRYgPjzSStjbtZN08EB8kCR3urZlW0nH6LNCuQWz5iXAAyZ/ysE6AAAAAAAAAAAAAAAAV/wHAaaj9GeYWLoAAAAASUVORK5CYII=;" vertex="1" parent="1">
          <mxGeometry width="504" height="383" as="geometry" />
        </mxCell>
      </root>
    </mxGraphModel>
  </diagram>
</mxfile>
